<svg xmlns="http://www.w3.org/2000/svg" viewBox="0 0 640 118"><style>.st{font-family:"code-mono","Fira Code",monospace;text-anchor:middle;dominant-baseline:central}</style><rect x="0" y="0" width="44" height="22" class="svg-cell-header"/><text x="22" y="11" class="st sh" font-size="10">Offset</text><rect x="44" y="0" width="74.5" height="22" class="svg-cell-header"/><text x="81.25" y="11" class="st sh" font-size="10">+0</text><rect x="118.5" y="0" width="74.5" height="22" class="svg-cell-header"/><text x="155.75" y="11" class="st sh" font-size="10">+1</text><rect x="193" y="0" width="74.5" height="22" class="svg-cell-header"/><text x="230.25" y="11" class="st sh" font-size="10">+2</text><rect x="267.5" y="0" width="74.5" height="22" class="svg-cell-header"/><text x="304.75" y="11" class="st sh" font-size="10">+3</text><rect x="342" y="0" width="74.5" height="22" class="svg-cell-header"/><text x="379.25" y="11" class="st sh" font-size="10">+4</text><rect x="416.5" y="0" width="74.5" height="22" class="svg-cell-header"/><text x="453.75" y="11" class="st sh" font-size="10">+5</text><rect x="491" y="0" width="74.5" height="22" class="svg-cell-header"/><text x="528.25" y="11" class="st sh" font-size="10">+6</text><rect x="565.5" y="0" width="74.5" height="22" class="svg-cell-header"/><text x="602.75" y="11" class="st sh" font-size="10">+7</text><rect x="0" y="22" width="44" height="36" class="svg-cell-header"/><text x="22" y="40" class="st sh" font-size="10">0x00</text><rect x="44" y="22" width="74.5" height="36" class="svg-cell-field"/><text x="81.25" y="33" class="st sf" font-size="11">tag</text><text x="81.25" y="47" class="st sf" font-size="11">(char)</text><rect x="118.5" y="22" width="223.5" height="36" class="svg-cell-pad"/><text x="230.25" y="40" class="st sp" font-size="11">pad</text><rect x="342" y="22" width="298" height="36" class="svg-cell-field"/><text x="491" y="40" class="st sf" font-size="11">count (int)</text><rect x="0" y="58" width="44" height="30" class="svg-cell-header"/><text x="22" y="73" class="st sh" font-size="10">0x08</text><rect x="44" y="58" width="149" height="30" class="svg-cell-field"/><text x="118.5" y="73" class="st sf" font-size="11">kind (short)</text><rect x="193" y="58" width="447" height="30" class="svg-cell-pad"/><text x="416.5" y="73" class="st sp" font-size="11">pad</text><rect x="0" y="88" width="44" height="30" class="svg-cell-header"/><text x="22" y="103" class="st sh" font-size="10">0x10</text><rect x="44" y="88" width="596" height="30" class="svg-cell-field"/><text x="342" y="103" class="st sf" font-size="11">value (double)</text></svg>
