<svg xmlns="http://www.w3.org/2000/svg" class="mem-diagram" viewBox="2 0 694 506" style="--diagram-width:694" font-family="code-mono, hangul-sans, monospace" font-weight="700" role="img" aria-label="list_for_each follows only the next pointers of the embedded list members, from the head user_info_list through users[0], users[1] and users[2] back to the head, and container_of subtracts offsetof, 0x100, at each node to reach its struct user_info">
  <path d="M 304 186 H 354" fill="none" style="stroke:var(--diagram-red);stroke-width:var(--diagram-stroke)"/>
  <path d="M 480 186 H 530" fill="none" style="stroke:var(--diagram-red);stroke-width:var(--diagram-stroke)"/>
  <path d="M 128 186 H 178" fill="none" style="stroke:var(--diagram-red);stroke-width:var(--diagram-stroke)"/>
  <path d="M 656 186 H 674 Q 686 186 686 198 V 374 Q 686 386 674 386 H 24 Q 12 386 12 374 V 198 Q 12 186 24 186 H 34" fill="none" style="stroke:var(--diagram-red);stroke-width:var(--diagram-stroke)"/>
  <rect x="192" y="48" width="112" height="116" style="fill:var(--diagram-area)"/>
  <rect x="192" y="164" width="112" height="44" style="fill:var(--diagram-purple-wash)"/>
  <rect x="192" y="208" width="112" height="44" style="fill:var(--diagram-purple-wash)"/>
  <line x1="192" y1="208" x2="304" y2="208" style="stroke:var(--diagram-ink);stroke-width:var(--diagram-border)"/>
  <rect x="192" y="252" width="112" height="68" style="fill:var(--diagram-area)"/>
  <rect x="192" y="320" width="112" height="34" style="fill:var(--diagram-gap)"/>
  <line x1="192" y1="164" x2="304" y2="164" style="stroke:var(--diagram-ink);stroke-width:var(--diagram-border)"/>
  <line x1="192" y1="252" x2="304" y2="252" style="stroke:var(--diagram-ink);stroke-width:var(--diagram-border)"/>
  <line x1="192" y1="320" x2="304" y2="320" style="stroke:var(--diagram-ink);stroke-width:var(--diagram-border)"/>
  <rect x="192" y="48" width="112" height="306" fill="none" style="stroke:var(--diagram-ink);stroke-width:var(--diagram-border)"/>
  <text x="248" y="34" font-size="15" text-anchor="middle" style="fill:var(--diagram-orange)">users[0]</text>
  <text x="248" y="101" font-size="15" text-anchor="middle" style="fill:var(--diagram-ink)">username</text>
  <text x="248" y="121" font-size="14" text-anchor="middle" style="fill:var(--diagram-ink)">&quot;alice&quot;</text>
  <text x="248" y="191" font-size="14" text-anchor="middle" style="fill:var(--diagram-ink)">next</text>
  <text x="248" y="235" font-size="14" text-anchor="middle" style="fill:var(--diagram-ink)">prev</text>
  <text x="248" y="281" font-size="15" text-anchor="middle" style="fill:var(--diagram-ink)">age</text>
  <text x="248" y="301" font-size="14" text-anchor="middle" style="fill:var(--diagram-ink)">20</text>
  <text x="248" y="341" font-size="12" text-anchor="middle" style="fill:var(--text-secondary)">padding</text>
  <line x1="192" y1="48" x2="164" y2="48" style="stroke:var(--diagram-ink);stroke-width:var(--diagram-border)"/>
  <line x1="192" y1="164" x2="164" y2="164" style="stroke:var(--diagram-ink);stroke-width:var(--diagram-border)"/>
  <line x1="174" y1="51.71" x2="174" y2="160.29" style="stroke:var(--diagram-blue);stroke-width:var(--diagram-stroke)"/>
  <path d="M 167 58.71 L 174 51.71 L 181 58.71" fill="none" style="stroke:var(--diagram-blue);stroke-width:var(--diagram-stroke)"/>
  <path d="M 167 153.29 L 174 160.29 L 181 153.29" fill="none" style="stroke:var(--diagram-blue);stroke-width:var(--diagram-stroke)"/>
  <text x="162" y="102" font-size="15" text-anchor="end" style="fill:var(--diagram-blue)">offsetof</text>
  <text x="162" y="123" font-size="12" text-anchor="end" style="fill:var(--diagram-blue)">= 0x100</text>
  <rect x="368" y="48" width="112" height="116" style="fill:var(--diagram-area)"/>
  <rect x="368" y="164" width="112" height="44" style="fill:var(--diagram-purple-wash)"/>
  <rect x="368" y="208" width="112" height="44" style="fill:var(--diagram-purple-wash)"/>
  <line x1="368" y1="208" x2="480" y2="208" style="stroke:var(--diagram-ink);stroke-width:var(--diagram-border)"/>
  <rect x="368" y="252" width="112" height="68" style="fill:var(--diagram-area)"/>
  <rect x="368" y="320" width="112" height="34" style="fill:var(--diagram-gap)"/>
  <line x1="368" y1="164" x2="480" y2="164" style="stroke:var(--diagram-ink);stroke-width:var(--diagram-border)"/>
  <line x1="368" y1="252" x2="480" y2="252" style="stroke:var(--diagram-ink);stroke-width:var(--diagram-border)"/>
  <line x1="368" y1="320" x2="480" y2="320" style="stroke:var(--diagram-ink);stroke-width:var(--diagram-border)"/>
  <rect x="368" y="48" width="112" height="306" fill="none" style="stroke:var(--diagram-ink);stroke-width:var(--diagram-border)"/>
  <text x="424" y="34" font-size="15" text-anchor="middle" style="fill:var(--diagram-orange)">users[1]</text>
  <text x="424" y="101" font-size="15" text-anchor="middle" style="fill:var(--diagram-ink)">username</text>
  <text x="424" y="121" font-size="14" text-anchor="middle" style="fill:var(--diagram-ink)">&quot;bob&quot;</text>
  <text x="424" y="191" font-size="14" text-anchor="middle" style="fill:var(--diagram-ink)">next</text>
  <text x="424" y="235" font-size="14" text-anchor="middle" style="fill:var(--diagram-ink)">prev</text>
  <text x="424" y="281" font-size="15" text-anchor="middle" style="fill:var(--diagram-ink)">age</text>
  <text x="424" y="301" font-size="14" text-anchor="middle" style="fill:var(--diagram-ink)">30</text>
  <text x="424" y="341" font-size="12" text-anchor="middle" style="fill:var(--text-secondary)">padding</text>
  <line x1="368" y1="48" x2="340" y2="48" style="stroke:var(--diagram-ink);stroke-width:var(--diagram-border)"/>
  <line x1="368" y1="164" x2="340" y2="164" style="stroke:var(--diagram-ink);stroke-width:var(--diagram-border)"/>
  <line x1="350" y1="51.71" x2="350" y2="160.29" style="stroke:var(--diagram-blue);stroke-width:var(--diagram-stroke)"/>
  <path d="M 343 58.71 L 350 51.71 L 357 58.71" fill="none" style="stroke:var(--diagram-blue);stroke-width:var(--diagram-stroke)"/>
  <path d="M 343 153.29 L 350 160.29 L 357 153.29" fill="none" style="stroke:var(--diagram-blue);stroke-width:var(--diagram-stroke)"/>
  <path d="M 363 186 L 351 180 L 351 192 Z" style="fill:var(--diagram-red)"/>
  <text x="336" y="206" font-size="14" text-anchor="middle" style="fill:var(--diagram-red)">next</text>
  <rect x="544" y="48" width="112" height="116" style="fill:var(--diagram-area)"/>
  <rect x="544" y="164" width="112" height="44" style="fill:var(--diagram-purple-wash)"/>
  <rect x="544" y="208" width="112" height="44" style="fill:var(--diagram-purple-wash)"/>
  <line x1="544" y1="208" x2="656" y2="208" style="stroke:var(--diagram-ink);stroke-width:var(--diagram-border)"/>
  <rect x="544" y="252" width="112" height="68" style="fill:var(--diagram-area)"/>
  <rect x="544" y="320" width="112" height="34" style="fill:var(--diagram-gap)"/>
  <line x1="544" y1="164" x2="656" y2="164" style="stroke:var(--diagram-ink);stroke-width:var(--diagram-border)"/>
  <line x1="544" y1="252" x2="656" y2="252" style="stroke:var(--diagram-ink);stroke-width:var(--diagram-border)"/>
  <line x1="544" y1="320" x2="656" y2="320" style="stroke:var(--diagram-ink);stroke-width:var(--diagram-border)"/>
  <rect x="544" y="48" width="112" height="306" fill="none" style="stroke:var(--diagram-ink);stroke-width:var(--diagram-border)"/>
  <text x="600" y="34" font-size="15" text-anchor="middle" style="fill:var(--diagram-orange)">users[2]</text>
  <text x="600" y="101" font-size="15" text-anchor="middle" style="fill:var(--diagram-ink)">username</text>
  <text x="600" y="121" font-size="14" text-anchor="middle" style="fill:var(--diagram-ink)">&quot;carol&quot;</text>
  <text x="600" y="191" font-size="14" text-anchor="middle" style="fill:var(--diagram-ink)">next</text>
  <text x="600" y="235" font-size="14" text-anchor="middle" style="fill:var(--diagram-ink)">prev</text>
  <text x="600" y="281" font-size="15" text-anchor="middle" style="fill:var(--diagram-ink)">age</text>
  <text x="600" y="301" font-size="14" text-anchor="middle" style="fill:var(--diagram-ink)">40</text>
  <text x="600" y="341" font-size="12" text-anchor="middle" style="fill:var(--text-secondary)">padding</text>
  <line x1="544" y1="48" x2="516" y2="48" style="stroke:var(--diagram-ink);stroke-width:var(--diagram-border)"/>
  <line x1="544" y1="164" x2="516" y2="164" style="stroke:var(--diagram-ink);stroke-width:var(--diagram-border)"/>
  <line x1="526" y1="51.71" x2="526" y2="160.29" style="stroke:var(--diagram-blue);stroke-width:var(--diagram-stroke)"/>
  <path d="M 519 58.71 L 526 51.71 L 533 58.71" fill="none" style="stroke:var(--diagram-blue);stroke-width:var(--diagram-stroke)"/>
  <path d="M 519 153.29 L 526 160.29 L 533 153.29" fill="none" style="stroke:var(--diagram-blue);stroke-width:var(--diagram-stroke)"/>
  <path d="M 539 186 L 527 180 L 527 192 Z" style="fill:var(--diagram-red)"/>
  <text x="512" y="206" font-size="14" text-anchor="middle" style="fill:var(--diagram-red)">next</text>
  <rect x="48" y="164" width="80" height="44" style="fill:var(--diagram-purple-wash)"/>
  <rect x="48" y="208" width="80" height="44" style="fill:var(--diagram-purple-wash)"/>
  <line x1="48" y1="208" x2="128" y2="208" style="stroke:var(--diagram-ink);stroke-width:var(--diagram-border)"/>
  <rect x="48" y="164" width="80" height="88" fill="none" style="stroke:var(--diagram-ink);stroke-width:var(--diagram-border)"/>
  <text x="88" y="191" font-size="14" text-anchor="middle" style="fill:var(--diagram-ink)">next</text>
  <text x="88" y="235" font-size="14" text-anchor="middle" style="fill:var(--diagram-ink)">prev</text>
  <text x="88" y="276" font-size="15" text-anchor="middle" style="fill:var(--diagram-purple)">user_info_list</text>
  <text x="88" y="295" font-size="12" text-anchor="middle" style="fill:var(--diagram-purple)">(head)</text>
  <path d="M 187 186 L 175 180 L 175 192 Z" style="fill:var(--diagram-red)"/>
  <text x="160" y="206" font-size="14" text-anchor="middle" style="fill:var(--diagram-red)">next</text>
  <path d="M 43 186 L 31 180 L 31 192 Z" style="fill:var(--diagram-red)"/>
  <text x="349" y="406" font-size="14" text-anchor="middle" style="fill:var(--diagram-red)">next</text>
  <text x="111.5" y="454" font-size="15" text-anchor="start" xml:space="preserve"><tspan style="fill:var(--diagram-ink)">list_for_each(</tspan><tspan style="fill:var(--diagram-red)">pos</tspan><tspan style="fill:var(--diagram-ink)">, </tspan><tspan style="fill:var(--diagram-purple)">&amp;user_info_list</tspan><tspan style="fill:var(--diagram-ink)">)</tspan></text>
  <text x="111.5" y="482" font-size="15" text-anchor="start" xml:space="preserve"><tspan style="fill:var(--diagram-ink)">    </tspan><tspan style="fill:var(--diagram-blue)">user</tspan><tspan style="fill:var(--diagram-ink)"> = container_of(</tspan><tspan style="fill:var(--diagram-red)">pos</tspan><tspan style="fill:var(--diagram-ink)">, </tspan><tspan style="fill:var(--diagram-orange)">struct user_info</tspan><tspan style="fill:var(--diagram-ink)">, </tspan><tspan style="fill:var(--diagram-purple)">list</tspan><tspan style="fill:var(--diagram-ink)">);</tspan></text>
</svg>
